<svg width="600" height="250" viewBox="0 0 600 250" xmlns="http://www.w3.org/2000/svg">
  <defs>
    <linearGradient id="grad2" x1="0%" y1="0%" x2="100%" y2="100%">
      <stop offset="0%" style="stop-color:#065f46;stop-opacity:1" />
      <stop offset="100%" style="stop-color:#10b981;stop-opacity:1" />
    </linearGradient>
  </defs>
  
  <!-- Background -->
  <rect width="600" height="250" fill="url(#grad2)"/>
  
  <!-- Decorative Elements -->
  <path d="M 0,200 Q 100,180 200,200 T 400,200 T 600,200 L 600,250 L 0,250 Z" fill="rgba(0,0,0,0.2)"/>
  
  <!-- Golf Flag -->
  <line x1="480" y1="80" x2="480" y2="180" stroke="white" stroke-width="3"/>
  <polygon points="480,80 540,95 480,110" fill="#fbbf24"/>
  <circle cx="480" cy="180" r="6" fill="white"/>
  
  <!-- Trophy Icon -->
  <path d="M 100,100 L 90,130 L 90,140 L 110,140 L 110,130 Z" fill="#fbbf24"/>
  <ellipse cx="100" cy="95" rx="15" ry="12" fill="#fbbf24"/>
  <rect x="95" y="140" width="10" height="15" fill="#fbbf24"/>
  <rect x="85" y="155" width="30" height="5" fill="#fbbf24"/>
  <path d="M 75,95 L 70,110 L 80,110 Z" fill="#fbbf24" opacity="0.8"/>
  <path d="M 125,95 L 130,110 L 120,110 Z" fill="#fbbf24" opacity="0.8"/>
  
  <!-- Main Text -->
  <text x="300" y="85" font-family="Arial, sans-serif" font-size="32" font-weight="bold" fill="white" text-anchor="middle">
    BOOK YOUR TEE TIME
  </text>
  
  <!-- Subtitle -->
  <text x="300" y="120" font-family="Arial, sans-serif" font-size="20" fill="rgba(255,255,255,0.95)" text-anchor="middle">
    World's Best Golf Courses
  </text>
  
  <!-- Features -->
  <text x="300" y="150" font-family="Arial, sans-serif" font-size="14" fill="rgba(255,255,255,0.85)" text-anchor="middle">
    ✓ Instant Booking  ✓ Best Prices  ✓ Exclusive Deals
  </text>
  
  <!-- CTA Button -->
  <rect x="225" y="170" width="150" height="40" rx="20" fill="white"/>
  <text x="300" y="197" font-family="Arial, sans-serif" font-size="15" font-weight="bold" fill="#065f46" text-anchor="middle">
    FIND COURSES
  </text>
  
  <!-- Bottom Tag -->
  <text x="300" y="230" font-family="Arial, sans-serif" font-size="13" font-weight="bold" fill="#fbbf24" text-anchor="middle">
    NEW MEMBERS GET £50 CREDIT
  </text>
</svg>
